<?xml version="1.0" standalone="no"?>
<!DOCTYPE svg PUBLIC "-//W3C//DTD SVG 20010904//EN"
 "http://www.w3.org/TR/2001/REC-SVG-20010904/DTD/svg10.dtd">
<svg version="1.0" xmlns="http://www.w3.org/2000/svg"
 width="300.000000pt" height="300.000000pt" viewBox="0 0 300.000000 300.000000"
 preserveAspectRatio="xMidYMid meet">

<g transform="translate(0.000000,300.000000) scale(0.100000,-0.100000)"
fill="#ffffff" stroke="none">
<path d="M1415 2953 c-380 -45 -677 -286 -789 -640 -42 -136 -48 -254 -44
-893 l4 -585 27 -97 c67 -251 228 -459 448 -577 102 -55 197 -86 324 -106 122
-19 229 -10 373 31 332 96 589 387 642 726 8 51 10 269 8 733 -4 721 -1 691
-65 845 -71 172 -207 333 -362 428 -168 103 -391 156 -566 135z m233 -179
c274 -57 494 -263 574 -540 23 -79 23 -80 23 -729 0 -604 -1 -655 -19 -720
-113 -423 -533 -662 -947 -539 -185 55 -358 202 -444 378 -83 168 -80 135 -80
881 0 608 1 665 18 725 109 387 489 624 875 544z"/>
<path d="M1442 2347 c-21 -22 -22 -32 -22 -223 0 -197 0 -201 23 -222 34 -32
89 -30 116 4 20 25 21 40 21 224 0 193 0 197 -23 218 -32 30 -87 29 -115 -1z"/>
<path d="M1050 1607 c-35 -18 -55 -57 -46 -93 9 -34 415 -449 459 -469 16 -6
39 -10 52 -8 13 3 122 105 255 238 228 229 233 234 226 267 -9 46 -38 72 -81
72 -33 0 -50 -14 -225 -189 l-190 -190 -187 187 c-110 109 -198 189 -213 193
-14 3 -36 -1 -50 -8z"/>
<path d="M1050 1067 c-35 -18 -55 -57 -46 -93 9 -36 416 -450 463 -470 22 -9
39 -11 55 -5 13 5 126 113 252 240 224 225 229 231 222 263 -9 46 -38 72 -81
72 -33 0 -50 -14 -225 -189 l-190 -190 -187 187 c-110 109 -198 189 -213 193
-14 3 -36 -1 -50 -8z"/>
</g>
</svg>
