<?xml version="1.0" standalone="no"?>
<!DOCTYPE svg PUBLIC "-//W3C//DTD SVG 20010904//EN"
 "http://www.w3.org/TR/2001/REC-SVG-20010904/DTD/svg10.dtd">
<svg version="1.0" xmlns="http://www.w3.org/2000/svg"
 width="340.000000pt" height="340.000000pt" viewBox="0 0 340.000000 340.000000"
 preserveAspectRatio="xMidYMid meet">

<g transform="translate(0.000000,340.000000) scale(0.100000,-0.100000)"
fill="#ffffff" stroke="none">
<path d="M1528 3346 c-358 -64 -666 -315 -797 -651 -67 -174 -65 -135 -69
-950 -4 -800 -2 -836 48 -987 134 -401 471 -673 893 -718 252 -27 525 50 734
209 222 167 368 423 403 701 8 67 10 305 8 810 l-4 715 -26 96 c-83 305 -277
543 -553 679 -141 70 -267 101 -430 105 -82 3 -158 -1 -207 -9z m247 -688 c25
-30 25 -30 25 -249 l0 -219 -27 -30 c-44 -50 -126 -40 -152 17 -15 33 -15 437
0 466 32 60 110 68 154 15z m-300 -1078 c115 -115 215 -210 220 -210 5 0 107
97 225 215 193 192 219 215 249 215 48 0 91 -46 91 -97 0 -37 -10 -48 -262
-300 -145 -143 -273 -264 -284 -267 -12 -4 -34 -2 -50 4 -42 16 -521 497 -534
536 -13 39 -1 74 37 104 57 45 75 33 308 -200z m-3 -617 l218 -218 208 207
c114 113 217 211 229 217 35 18 69 13 102 -15 25 -21 31 -33 31 -67 0 -40 -4
-45 -262 -304 l-262 -263 -45 0 -44 0 -248 247 c-137 135 -256 262 -264 280
-31 65 15 132 89 133 26 0 61 -31 248 -217z"/>
</g>
</svg>
